<?xml version="1.0" encoding="utf-8"?>
<!-- Generator: Adobe Illustrator 19.2.1, SVG Export Plug-In . SVG Version: 6.00 Build 0)  -->
<svg version="1.1" xmlns="http://www.w3.org/2000/svg" xmlns:xlink="http://www.w3.org/1999/xlink" x="0px" y="0px"
	 viewBox="0 0 250 150" style="enable-background:new 0 0 250 150;" xml:space="preserve">
<style type="text/css">
	.st0{display:none;}
	.st1{display:inline;}
	.st2{clip-path:url(#SVGID_1_);}
	.st3{clip-path:url(#SVGID_4_);}
	.st4{fill:#FFFFFF;}
</style>
<g id="Layer_2" class="st0">
	<g class="st1">
		<path d="M137.4,128.6c-1.1,0.3-2.2,0.5-3.3,0.7c-2.9,0.5-4.7,3.3-4.2,6.1c0.3,1.4,1.1,2.6,2.1,3.3c1.1,0.8,2.5,1.1,4,0.9
			c1.3-0.2,2.6-0.5,3.9-0.8c2.8-0.7,4.5-3.6,3.8-6.4C143.1,129.6,140.2,127.9,137.4,128.6L137.4,128.6z M137.4,128.6"/>
		<path d="M180.9,58.9c0.4,1.1,1.1,2,2,2.6c1.3,0.9,3,1.2,4.7,0.7c2.8-0.9,4.2-3.9,3.3-6.6c-0.4-1.3-0.9-2.5-1.4-3.7
			c-1.1-2.7-4.1-4-6.8-2.9c-2.7,1.1-4,4.1-2.9,6.8C180.2,56.8,180.6,57.8,180.9,58.9L180.9,58.9z M180.9,58.9"/>
		<path d="M154.5,121.1c-0.9,0.6-1.9,1.2-2.8,1.8c-2.5,1.5-3.4,4.7-1.9,7.2c0.4,0.7,0.9,1.2,1.5,1.7c1.6,1.1,3.8,1.3,5.7,0.3
			c1.1-0.7,2.3-1.4,3.4-2.1c2.4-1.6,3.1-4.9,1.5-7.3C160.1,120.2,156.9,119.5,154.5,121.1L154.5,121.1z M154.5,121.1"/>
		<path d="M189.5,72.8c-0.1-2.9-2.6-5.2-5.5-5c-2.9,0.1-5.2,2.6-5,5.5c0,1.1,0.1,2.2,0,3.3c0,1.8,0.8,3.4,2.2,4.4
			c0.8,0.6,1.8,0.9,2.9,1c2.9,0.1,5.3-2.2,5.4-5.1C189.6,75.5,189.6,74.2,189.5,72.8L189.5,72.8z M189.5,72.8"/>
		<path d="M175.4,107.3c-2.3-1.7-5.6-1.3-7.4,1.1c-0.7,0.9-1.4,1.8-2.1,2.6c-1.9,2.2-1.6,5.5,0.6,7.4c0.1,0.1,0.3,0.2,0.4,0.3
			c2.2,1.5,5.2,1.2,7-0.9c0.9-1,1.7-2.1,2.5-3.1C178.2,112.3,177.7,109,175.4,107.3L175.4,107.3z M175.4,107.3"/>
		<g>
			<defs>
				<rect id="SVGID_3_" x="58.8" y="10" width="131" height="130"/>
			</defs>
			<clipPath id="SVGID_1_">
				<use xlink:href="#SVGID_3_"  style="overflow:visible;"/>
			</clipPath>
			<path class="st2" d="M183.1,88.3c-2.8-0.9-5.7,0.7-6.6,3.4c-0.3,1.1-0.7,2.1-1.1,3.2c-0.9,2.3,0,4.8,1.9,6.2
				c0.4,0.2,0.7,0.5,1.2,0.6c2.7,1,5.7-0.3,6.8-3c0.5-1.2,0.9-2.5,1.3-3.8C187.4,92.1,185.9,89.2,183.1,88.3L183.1,88.3z
				 M183.1,88.3"/>
			<path class="st2" d="M114.5,129.4c-4.7-0.8-9.2-2.3-13.5-4.3c-0.1,0-0.1-0.1-0.1-0.1c-1-0.5-2-1-3-1.5c0,0,0,0,0,0
				c-1.8-1-3.5-2.1-5.2-3.3c-24.7-17.4-30.7-51.7-13.2-76.4c3.8-5.4,8.4-9.9,13.5-13.4c0.1,0,0.1-0.1,0.2-0.1
				c18-12.4,42.5-13.2,61.6-0.5l-4.1,5.9c-1.1,1.7-0.4,2.9,1.6,2.7l17.8-1.6c2-0.2,3.2-1.9,2.7-3.8l-4.8-17.3
				c-0.5-1.9-1.9-2.2-3.1-0.5l-4.1,5.9c-14-9.4-30.9-13-47.6-10.1c-1.7,0.3-3.3,0.6-5,1.1c0,0,0,0,0,0c-0.1,0-0.1,0-0.2,0.1
				c-14.4,3.7-27,12.1-35.9,24.1c-0.1,0.1-0.2,0.2-0.2,0.3c-0.3,0.4-0.6,0.8-0.9,1.2c-0.5,0.7-0.9,1.4-1.4,2.1
				c-0.1,0.1-0.1,0.2-0.1,0.3c-7.4,11.5-11,24.7-10.4,38.2c0,0,0,0.1,0,0.1c0.1,1.3,0.2,2.7,0.3,4c0,0.1,0,0.2,0,0.2
				c0.1,1.3,0.3,2.6,0.6,4c2.3,13.5,8.7,25.7,18.3,35.2c0,0,0,0,0.1,0.1c0,0,0,0,0,0c2.6,2.5,5.4,4.9,8.4,7
				c7.9,5.5,16.6,9.2,26.1,10.9c2.9,0.5,5.6-1.4,6.1-4.2C119.2,132.6,117.3,129.9,114.5,129.4L114.5,129.4z M114.5,129.4"/>
		</g>
		<path d="M121,32.9c-2.4,0-4.3,1.9-4.3,4.3v42.4l38.7,20c0.6,0.3,1.3,0.5,1.9,0.5c1.5,0,3-0.8,3.8-2.3c1.1-2.1,0.3-4.7-1.8-5.7
			l-34.1-17.7V37.2C125.2,34.8,123.3,32.9,121,32.9L121,32.9z M121,32.9"/>
	</g>
</g>
<g id="Layer_3" class="st0">
	<g class="st1">
		<path d="M83.8,137.8c6.4-1.3,10.7-7,13.2-12.9h-3.4c-1.4,0-2.9,0-4.3-0.1c-1.5,3-3.7,5.6-7,6.1c-1-0.9-2.3-1.4-3.8-1.4
			c-3.2,0-5.8,2.6-5.8,5.8c0,3.2,2.6,5.8,5.8,5.8C80.9,141,82.9,139.7,83.8,137.8L83.8,137.8z M83.8,137.8"/>
		<path d="M174.5,141c3.2,0,5.8-2.6,5.8-5.8c0-3.2-2.6-5.8-5.8-5.8c-1.3,0-2.4,0.4-3.4,1.1c-2.8-0.9-4.8-3.4-6.3-6.2
			c-2.1,0.4-4.1,0.5-5.5,0.5h-2.5c2,5.6,5.8,11,12.4,12.7C170,139.6,172.1,141,174.5,141L174.5,141z M174.5,141"/>
		<path d="M165,30.1l-11.9-11.9c-2.2,0.6-8.9,4.9-10.9,7L158,41C160.1,39,164.4,32.4,165,30.1L165,30.1z M165,30.1"/>
		<path d="M142.4,34.6c0.3,0,0.6-0.1,0.8-0.3l1.7-1.7c0.1-0.1,0.2-0.2,0.2-0.4c0.2-0.4,0.1-1-0.2-1.3c-0.4-0.4-0.9-0.4-1.3-0.2
			c-0.1,0-0.3,0.1-0.4,0.2l-1.7,1.7c-0.5,0.5-0.5,1.2,0,1.7C141.8,34.4,142.1,34.6,142.4,34.6L142.4,34.6z M142.4,34.6"/>
		<path d="M137.4,39.6c0.3,0,0.6-0.1,0.8-0.3l1.7-1.7c0.5-0.5,0.5-1.2,0-1.7c-0.5-0.5-1.2-0.5-1.7,0l-1.7,1.7
			c-0.5,0.5-0.5,1.2,0,1.7C136.8,39.5,137.1,39.6,137.4,39.6L137.4,39.6z M137.4,39.6"/>
		<path d="M132.4,44.6c0.3,0,0.6-0.1,0.8-0.3l1.7-1.7c0.5-0.5,0.5-1.2,0-1.7c-0.5-0.5-1.2-0.5-1.7,0l-1.7,1.7
			c-0.5,0.5-0.5,1.2,0,1.7C131.8,44.5,132.1,44.6,132.4,44.6L132.4,44.6z M132.4,44.6"/>
		<path d="M148.5,35.5c0.2-0.4,0.1-1-0.2-1.3c-0.4-0.4-0.9-0.4-1.3-0.2c-0.1,0.1-0.2,0.1-0.4,0.2l-1.7,1.7c-0.5,0.5-0.5,1.2,0,1.7
			c0.2,0.2,0.5,0.3,0.8,0.3c0.3,0,0.6-0.1,0.8-0.3l1.7-1.7C148.3,35.8,148.4,35.7,148.5,35.5L148.5,35.5z M148.5,35.5"/>
		<path d="M143.2,39.2c-0.5-0.5-1.2-0.5-1.7,0l-1.7,1.7c-0.5,0.5-0.5,1.2,0,1.7c0.2,0.2,0.5,0.3,0.8,0.3c0.3,0,0.6-0.1,0.8-0.3
			l1.7-1.7C143.7,40.4,143.7,39.7,143.2,39.2L143.2,39.2z M143.2,39.2"/>
		<path d="M138.2,44.2c-0.5-0.5-1.2-0.5-1.7,0l-1.7,1.7c-0.5,0.5-0.5,1.2,0,1.7c0.2,0.2,0.5,0.3,0.8,0.3c0.3,0,0.6-0.1,0.8-0.3
			l1.7-1.7C138.7,45.5,138.7,44.7,138.2,44.2L138.2,44.2z M138.2,44.2"/>
		<path d="M149.1,41.2c0.3,0,0.6-0.1,0.8-0.3l1.7-1.7c0.1-0.1,0.2-0.2,0.2-0.4c0.2-0.4,0.1-1-0.2-1.3c-0.4-0.4-0.9-0.4-1.3-0.2
			c-0.1,0.1-0.3,0.1-0.4,0.2l-1.7,1.7c-0.5,0.5-0.5,1.2,0,1.7C148.5,41.1,148.8,41.2,149.1,41.2L149.1,41.2z M149.1,41.2"/>
		<path d="M144.1,46.3c0.3,0,0.6-0.1,0.8-0.3l1.7-1.7c0.5-0.5,0.5-1.2,0-1.7c-0.5-0.5-1.2-0.5-1.7,0l-1.7,1.7
			c-0.5,0.5-0.5,1.2,0,1.7C143.5,46.1,143.8,46.3,144.1,46.3L144.1,46.3z M144.1,46.3"/>
		<path d="M139,51.3c0.3,0,0.6-0.1,0.8-0.3l1.7-1.7c0.5-0.5,0.5-1.2,0-1.7c-0.5-0.5-1.2-0.5-1.7,0l-1.7,1.7c-0.5,0.5-0.5,1.2,0,1.7
			C138.4,51.2,138.8,51.3,139,51.3L139,51.3z M139,51.3"/>
		<path d="M192.4,65.7h-7.1V11.3c0-1.3-1.1-2.4-2.4-2.4h-10.3c-0.6,0-1.2,0.2-1.6,0.6l-8.5,7.8c-1.9-0.5-4.1,0.2-5.5,0.7l8.1,8.1
			c0.6-1.5,1.1-3.6,0.7-5.5l7.7-7.1h7v52h-123c-2.6,0-4.7,2.1-4.7,4.7v4.7c0,2.6,2.1,4.7,4.7,4.7h2.9c0.4,1.8,0.8,3.9,1.4,6.4
			l3.3,15.9c4.6,17.2,14,19.9,25.1,20.3c1.1,0,2.2,0,3.3,0h4.3l58.1,0c0,0,0,0,0,0c0,0,0,0,0,0h3.3c1.3,0,2.9-0.1,4.5-0.3
			c7.3-1.1,16.7-5.2,21.1-18.8l5.4-23.5h2.1c0.1,0,0.2,0,0.4,0c2.4-0.2,4.4-2.2,4.4-4.7v-4.7C197.1,67.8,195,65.7,192.4,65.7
			L192.4,65.7z M154.7,115.2L154.7,115.2C154.7,115.2,154.7,115.2,154.7,115.2C154.7,115.2,154.7,115.2,154.7,115.2L154.7,115.2z
			 M154.7,115.2"/>
	</g>
</g>
<g id="Layer_5" class="st0">
	<g class="st1">
		<path d="M196.6,99.6v27.3h13.7V86H53.4V30.1c0-1.8-0.7-3.4-2-4.8c-1.3-1.4-2.9-2.2-4.8-2.2c-1.9,0-3.5,0.7-4.8,2.2
			c-1.3,1.4-2,3.1-2,4.8v96.9h13.7V99.6H196.6z M196.6,99.6"/>
		<path d="M74.9,58c3.4,0,6.4-1.2,9-3.7c2.6-2.4,3.8-5.4,3.8-8.8c0-3.4-1.3-6.4-3.8-8.8c-2.6-2.4-5.5-3.7-9-3.7
			c-3.4,0-6.4,1.2-8.8,3.7c-2.4,2.4-3.7,5.4-3.7,8.8c0,3.4,1.2,6.4,3.7,8.8C68.5,56.8,71.5,58,74.9,58L74.9,58z M74.9,58"/>
		<path d="M210.2,75.7V59c0-2.7-0.9-4.8-2.8-6.5c-1.9-1.7-4.3-2.7-7.2-3.2l-98.9-9.7h-0.7c-1.8,0-3.3,0.6-4.5,1.8
			c-1.2,1.2-1.8,2.7-1.8,4.5v19.3H69.1c-4.2,0-6.3,1.7-6.3,5.2s2.1,5.2,6.3,5.2H210.2z M210.2,75.7"/>
	</g>
</g>
<g id="Layer_7">
	<g>
		<path d="M183.3,127.3H65.5c-3.2,0-5.9,2.6-5.9,5.9c0,3.2,2.6,5.9,5.9,5.9h117.8c3.3,0,5.9-2.6,5.9-5.9
			C189.2,129.9,186.6,127.3,183.3,127.3L183.3,127.3z M183.3,127.3"/>
		<g>
			<defs>
				<rect id="SVGID_2_" x="59.6" y="9.5" width="130.7" height="131"/>
			</defs>
			<clipPath id="SVGID_4_">
				<use xlink:href="#SVGID_2_"  style="overflow:visible;"/>
			</clipPath>
			<path class="st3" d="M72.9,112c-3.3,0-5.9,2.6-5.9,5.9c0,3.3,2.6,5.9,5.9,5.9h103.1c3.3,0,5.9-2.6,5.9-5.9c0-3.2-2.6-5.9-5.9-5.9
				h-1.5V59h1.5c1.6,0,3-1.3,3-3c0-1.6-1.3-2.9-3-2.9H72.9c-1.6,0-2.9,1.3-2.9,2.9c0,1.6,1.3,3,2.9,3h1.5v53H72.9z M162.7,59v53H145
				V59H162.7z M133.3,59v53h-17.7V59H133.3z M86.1,59h17.7v53H86.1V59z M86.1,59"/>
			<path class="st3" d="M65.5,47.8h117.8c3.3,0,5.9-2.6,5.9-5.9c0-2.6-1.7-4.8-4-5.6L126.8,10c-1.5-0.7-3.3-0.7-4.8,0L63.1,36.5
				c-2.5,1.1-3.9,3.9-3.3,6.6C60.4,45.8,62.7,47.8,65.5,47.8L65.5,47.8z M65.5,47.8"/>
		</g>
	</g>
	<g>
		<circle class="st4" cx="123.8" cy="84.4" r="27.1"/>
		<g>
			<path d="M124.1,113.7c-16,0-28.9-13-28.9-28.9s13-28.9,28.9-28.9s28.9,13,28.9,28.9S140,113.7,124.1,113.7L124.1,113.7z
				 M124.1,60.6c-13.3,0-24.1,10.8-24.1,24.1s10.8,24.1,24.1,24.1s24.1-10.8,24.1-24.1S137.4,60.6,124.1,60.6L124.1,60.6z
				 M124.1,60.6"/>
			<path d="M123.1,103.2v-3.7c-1.8-0.2-3.3-0.6-4.5-1.2c-1.1-0.6-2.1-1.5-3-2.9c-0.8-1.3-1.3-2.9-1.5-4.8l3.7-0.7
				c0.3,2,0.8,3.4,1.5,4.3c1,1.3,2.3,2,3.7,2.2V84.7c-1.5-0.3-3-0.9-4.6-1.7c-1.2-0.6-2.1-1.6-2.7-2.7c-0.6-1.2-0.9-2.5-0.9-3.9
				c0-2.6,0.9-4.7,2.8-6.3c1.2-1.1,3.1-1.7,5.5-2v-1.7h2.2V68c2.1,0.2,3.8,0.8,5.1,1.9c1.6,1.3,2.6,3.2,2.9,5.5l-3.8,0.6
				c-0.2-1.4-0.7-2.5-1.4-3.3c-0.7-0.8-1.6-1.3-2.8-1.5v10.6c1.8,0.5,3.1,0.8,3.7,1.1c1.1,0.5,2.1,1.1,2.8,1.8
				c0.7,0.7,1.3,1.6,1.7,2.6c0.4,1,0.6,2.1,0.6,3.2c0,2.5-0.8,4.7-2.4,6.4c-1.6,1.7-3.7,2.6-6.3,2.7v3.7L123.1,103.2L123.1,103.2z
				 M123.1,71.1c-1.4,0.2-2.6,0.8-3.4,1.7c-0.8,0.9-1.2,2-1.2,3.3c0,1.3,0.4,2.3,1.1,3.1c0.7,0.8,1.9,1.5,3.6,2V71.1z M125.2,96.4
				c1.4-0.2,2.6-0.8,3.5-1.9c0.9-1.1,1.4-2.4,1.4-3.9c0-1.3-0.3-2.4-1-3.2c-0.7-0.8-2-1.5-3.9-2.2L125.2,96.4L125.2,96.4z
				 M125.2,96.4"/>
		</g>
	</g>
</g>
</svg>
