<?xml version="1.0" encoding="utf-8"?>
<!-- Generator: Adobe Illustrator 19.2.1, SVG Export Plug-In . SVG Version: 6.00 Build 0)  -->
<svg version="1.1" xmlns="http://www.w3.org/2000/svg" xmlns:xlink="http://www.w3.org/1999/xlink" x="0px" y="0px"
	 viewBox="0 0 250 150" style="enable-background:new 0 0 250 150;" xml:space="preserve">
<style type="text/css">
	.st0{display:none;}
	.st1{display:inline;}
	.st2{fill:#808080;}
	.st3{display:inline;fill:#808080;}
	.st4{font-family:'MyriadPro-Bold';}
	.st5{font-size:24px;}
	.st6{clip-path:url(#SVGID_2_);fill:#808080;}
</style>
<g id="Layer_3">
	<g>
		<g>
			<rect x="61.1" y="95.2" class="st2" width="40.7" height="7.4"/>
			<rect x="61.1" y="87" class="st2" width="40.7" height="7.4"/>
			<rect x="61.1" y="78.9" class="st2" width="40.7" height="7.4"/>
		</g>
		<g id="XMLID_6_">
			<rect id="XMLID_9_" x="192.3" y="75.5" class="st2" width="7.1" height="27.2"/>
			<rect id="XMLID_8_" x="51.4" y="75.5" class="st2" width="7.1" height="27.2"/>
			<polygon id="XMLID_187_" class="st2" points="213.1,75.7 39.3,75.7 64.1,56.6 183.1,56.6 			"/>
			<circle class="st2" cx="250.4" cy="82.3" r="0"/>
			<path class="st2" d="M199.4,102.7H50.7V75.1h148.6V102.7z M102.3,78H60.5v24.7h41.9V78z M146.3,79.5h-11.9v23.1h11.9V79.5z
				 M126.2,80.9h-11.9v10.3h11.9V80.9z M177.3,80.9h-21.6v10.3h21.6V80.9z"/>
		</g>
		<rect x="50.7" y="102.7" class="st2" width="148.6" height="1.3"/>
		<rect x="74.7" y="50.8" class="st2" width="7.2" height="8.2"/>
	</g>
</g>
</svg>
